<svg xmlns="http://www.w3.org/2000/svg" width="24" height="18" viewBox="0 0 24 18">
  <path id="film" d="M22.875,4.5H22.5v.938A.564.564,0,0,1,21.938,6H20.063a.564.564,0,0,1-.562-.562V4.5H4.5v.938A.564.564,0,0,1,3.938,6H2.063A.564.564,0,0,1,1.5,5.438V4.5H1.125A1.122,1.122,0,0,0,0,5.625v15.75A1.122,1.122,0,0,0,1.125,22.5H1.5v-.937A.564.564,0,0,1,2.063,21H3.938a.564.564,0,0,1,.563.563V22.5h15v-.937A.564.564,0,0,1,20.063,21h1.875a.564.564,0,0,1,.563.563V22.5h.375A1.122,1.122,0,0,0,24,21.375V5.625A1.122,1.122,0,0,0,22.875,4.5ZM4.5,18.938a.564.564,0,0,1-.562.563H2.063a.564.564,0,0,1-.562-.562V17.063a.564.564,0,0,1,.563-.562H3.938a.564.564,0,0,1,.563.563Zm0-4.5A.564.564,0,0,1,3.938,15H2.063a.564.564,0,0,1-.562-.562V12.563A.564.564,0,0,1,2.063,12H3.938a.564.564,0,0,1,.563.563Zm0-4.5a.564.564,0,0,1-.562.563H2.063A.564.564,0,0,1,1.5,9.938V8.063A.564.564,0,0,1,2.063,7.5H3.938a.564.564,0,0,1,.563.563Zm12.75,9.75a.564.564,0,0,1-.562.563H7.313a.564.564,0,0,1-.562-.562v-4.5a.564.564,0,0,1,.563-.562h9.375a.564.564,0,0,1,.563.563Zm0-7.875a.564.564,0,0,1-.562.563H7.313a.564.564,0,0,1-.562-.562v-4.5a.564.564,0,0,1,.563-.562h9.375a.564.564,0,0,1,.563.563Zm5.25,7.125a.564.564,0,0,1-.562.563H20.063a.564.564,0,0,1-.562-.562V17.063a.564.564,0,0,1,.563-.562h1.875a.564.564,0,0,1,.563.563Zm0-4.5a.564.564,0,0,1-.562.563H20.063a.564.564,0,0,1-.562-.562V12.563A.564.564,0,0,1,20.063,12h1.875a.564.564,0,0,1,.563.563Zm0-4.5a.564.564,0,0,1-.562.563H20.063a.564.564,0,0,1-.562-.562V8.063a.564.564,0,0,1,.563-.562h1.875a.564.564,0,0,1,.563.563Z" transform="translate(0 -4.5)" fill="#d4d8d8"/>
</svg>
