{
	"asset":{
		"generator":"Khronos glTF Blender I/O v4.1.63",
		"version":"2.0"
	},
	"scene":0,
	"scenes":[
		{
			"name":"Scene",
			"nodes":[
				0
			]
		}
	],
	"nodes":[
		{
			"mesh":0,
			"name":"crown"
		}
	],
	"meshes":[
		{
			"name":"Circle.002",
			"primitives":[
				{
					"attributes":{
						"POSITION":0,
						"NORMAL":1,
						"TEXCOORD_0":2
					},
					"indices":3
				}
			]
		}
	],
	"accessors":[
		{
			"bufferView":0,
			"componentType":5126,
			"count":2900,
			"max":[
				0.8440427184104919,
				0.402898371219635,
				0.8613062500953674
			],
			"min":[
				-0.8426907658576965,
				-0.004089072346687317,
				-0.8523086905479431
			],
			"type":"VEC3"
		},
		{
			"bufferView":1,
			"componentType":5126,
			"count":2900,
			"type":"VEC3"
		},
		{
			"bufferView":2,
			"componentType":5126,
			"count":2900,
			"type":"VEC2"
		},
		{
			"bufferView":3,
			"componentType":5123,
			"count":4176,
			"type":"SCALAR"
		}
	],
	"bufferViews":[
		{
			"buffer":0,
			"byteLength":34800,
			"byteOffset":0,
			"target":34962
		},
		{
			"buffer":0,
			"byteLength":34800,
			"byteOffset":34800,
			"target":34962
		},
		{
			"buffer":0,
			"byteLength":23200,
			"byteOffset":69600,
			"target":34962
		},
		{
			"buffer":0,
			"byteLength":8352,
			"byteOffset":92800,
			"target":34963
		}
	],
	"buffers":[
		{
			"byteLength":101152,
			"uri":"crown.bin"
		}
	]
}
